<svg height="622" width="720" xmlns="http://www.w3.org/2000/svg">
<rect height="622" fill="#555" width="720"></rect>
<text fill="#7f7" font-family="Courier New" font-size="12" xml:space="preserve">
<tspan x="10" y="26">8 megabytes installed</tspan>
<tspan x="10" y="42"></tspan>
<tspan x="10" y="58">node_modules</tspan>
<tspan x="10" y="74">└─┬ spotify-web@1.3.0 </tspan>
<tspan x="10" y="90">  ├─┬ cheerio@0.10.8 </tspan>
<tspan x="10" y="106">  │ ├─┬ cheerio-select@0.0.3 </tspan>
<tspan x="10" y="122">  │ │ └─┬ CSSselect@0.7.0 </tspan>
<tspan x="10" y="138">  │ │   ├── boolbase@1.0.0 </tspan>
<tspan x="10" y="154">  │ │   ├── CSSwhat@0.4.7 </tspan>
<tspan x="10" y="170">  │ │   ├── domutils@1.4.3 </tspan>
<tspan x="10" y="186">  │ │   └── nth-check@1.0.1 </tspan>
<tspan x="10" y="202">  │ ├── entities@0.5.0 </tspan>
<tspan x="10" y="218">  │ ├─┬ htmlparser2@2.6.0 </tspan>
<tspan x="10" y="234">  │ │ ├── domelementtype@1.3.0 </tspan>
<tspan x="10" y="250">  │ │ ├── domhandler@2.0.3 </tspan>
<tspan x="10" y="266">  │ │ └── domutils@1.0.1 </tspan>
<tspan x="10" y="282">  │ └── underscore@1.4.4 </tspan>
<tspan x="10" y="298">  ├── debug@0.7.4 </tspan>
<tspan x="10" y="314">  ├─┬ protobufjs@2.0.5 </tspan>
<tspan x="10" y="330">  │ ├─┬ ascli@1.0.1 </tspan>
<tspan x="10" y="346">  │ │ ├── colour@0.7.1 </tspan>
<tspan x="10" y="362">  │ │ └── optjs@3.2.2 </tspan>
<tspan x="10" y="378">  │ └─┬ bytebuffer@2.3.2 </tspan>
<tspan x="10" y="394">  │   └── long@1.2.3 </tspan>
<tspan x="10" y="410">  ├── readable-stream@0.2.0 </tspan>
<tspan x="10" y="426">  ├─┬ superagent@0.12.4 </tspan>
<tspan x="10" y="442">  │ ├── cookiejar@1.3.0 </tspan>
<tspan x="10" y="458">  │ ├── emitter-component@0.0.6 </tspan>
<tspan x="10" y="474">  │ ├── formidable@1.0.9 </tspan>
<tspan x="10" y="490">  │ ├── methods@0.0.1 </tspan>
<tspan x="10" y="506">  │ ├── mime@1.2.5 </tspan>
<tspan x="10" y="522">  │ └── qs@0.5.2 </tspan>
<tspan x="10" y="538">  └─┬ ws@0.4.32 </tspan>
<tspan x="10" y="554">    ├── commander@2.1.0 </tspan>
<tspan x="10" y="570">    ├── nan@1.0.0 </tspan>
<tspan x="10" y="586">    ├── options@0.0.6 </tspan>
<tspan x="10" y="602">    └── tinycolor@0.0.1</tspan>
</text>
</svg>
